<?xml version="1.0" encoding="UTF-8" standalone="no"?>
<svg
   xmlns:dc="http://purl.org/dc/elements/1.1/"
   xmlns:cc="http://creativecommons.org/ns#"
   xmlns:rdf="http://www.w3.org/1999/02/22-rdf-syntax-ns#"
   xmlns:svg="http://www.w3.org/2000/svg"
   xmlns="http://www.w3.org/2000/svg"
   xmlns:sodipodi="http://sodipodi.sourceforge.net/DTD/sodipodi-0.dtd"
   xmlns:inkscape="http://www.inkscape.org/namespaces/inkscape"
   width="168.72688mm"
   height="17.452085mm"
   viewBox="0 0 168.72688 17.452085"
   version="1.1"
   id="svg8"
   inkscape:version="1.0.1 (3bc2e813f5, 2020-09-07)"
   sodipodi:docname="DeathBloomsLogo1.svg">
  <style
     id="style939" />
  <title
     id="title62">DeathBloomsLogo</title>
  <defs
     id="defs2">
    <clipPath
       clipPathUnits="userSpaceOnUse"
       id="clipPath80">
      <path
         d="M 0,792 H 612 V 0 H 0 Z"
         id="path78" />
    </clipPath>
  </defs>
  <sodipodi:namedview
     id="base"
     pagecolor="#ffffff"
     bordercolor="#666666"
     borderopacity="1.0"
     inkscape:pageopacity="0.0"
     inkscape:pageshadow="2"
     inkscape:zoom="1.4"
     inkscape:cx="335.84485"
     inkscape:cy="19.831961"
     inkscape:document-units="mm"
     inkscape:current-layer="layer1"
     inkscape:document-rotation="0"
     showgrid="false"
     showguides="true"
     inkscape:guide-bbox="true"
     inkscape:window-width="1920"
     inkscape:window-height="1017"
     inkscape:window-x="-8"
     inkscape:window-y="-8"
     inkscape:window-maximized="1"
     inkscape:lockguides="true"
     fit-margin-top="0"
     fit-margin-left="0"
     fit-margin-right="0"
     fit-margin-bottom="0"
     showborder="true"
     inkscape:showpageshadow="false"
     lock-margins="true" />
  <metadata
     id="metadata5">
    <rdf:RDF>
      <cc:Work
         rdf:about="">
        <dc:format>image/svg+xml</dc:format>
        <dc:type
           rdf:resource="http://purl.org/dc/dcmitype/StillImage" />
        <dc:title>DeathBloomsLogo</dc:title>
      </cc:Work>
    </rdf:RDF>
  </metadata>
  <g
     inkscape:label="Layer 1"
     inkscape:groupmode="layer"
     id="layer1"
     transform="translate(-20.395141,-50.085672)">
    <g
       id="g1871">
      <g
         id="g1815"
         transform="translate(76.362225,-39.065158)">
        <text
           xml:space="preserve"
           style="font-style:normal;font-variant:normal;font-weight:normal;font-stretch:normal;font-size:10.5833px;line-height:1.25;font-family:Elephant;-inkscape-font-specification:Elephant;letter-spacing:0px;word-spacing:0px;fill:#000000;fill-opacity:1;stroke:none;stroke-width:0.264583"
           x="26.597839"
           y="106.21909"
           id="text12"><tspan
             sodipodi:role="line"
             id="tspan10"
             x="26.597839"
             y="106.21909"
             style="font-style:normal;font-variant:normal;font-weight:normal;font-stretch:normal;font-size:22.5778px;font-family:Elephant;-inkscape-font-specification:Elephant;stroke-width:0.264583">Blooms</tspan></text>
        <text
           xml:space="preserve"
           style="font-style:normal;font-weight:normal;font-size:5.74823px;line-height:1.25;font-family:sans-serif;letter-spacing:0px;word-spacing:0px;fill:#000000;fill-opacity:1;stroke:none;stroke-width:0.143706"
           x="95.660278"
           y="93.609207"
           id="text16"><tspan
             sodipodi:role="line"
             id="tspan14"
             x="97.681145"
             y="93.609207"
             style="text-align:end;text-anchor:end;stroke-width:0.143706"
             dx="0 0 0 0 0 0 0 0 0"><tspan
   style="font-style:normal;font-variant:normal;font-weight:normal;font-stretch:normal;font-family:'Sitka Small';-inkscape-font-specification:'Sitka Small';text-align:end;letter-spacing:1.05833px;word-spacing:0px;text-anchor:end;stroke-width:0.143706"
   id="tspan18"
   dx="0"
   rotate="0 0 0 0 0 0 0 0 0">RAGNAROS</tspan> </tspan></text>
        <g
           id="horde_crest"
           transform="matrix(0.02153002,0,0,-0.02153002,92.279197,105.17993)"
           style="fill:#000000;fill-opacity:1">
          <g
             id="g76"
             clip-path="url(#clipPath80)"
             style="fill:#000000;fill-opacity:1">
            <path
               d="M 285.708,701.417 C 222.708,679.083 253.53,618.62 267,607.5 c 7.124,-5.881 13,-53.792 14.25,-57.75 0.5,-5.292 -6.202,-32.466 -9.583,-36.083 -11.178,8.447 -28.834,44.833 -28.656,55.885 16.489,-15.052 26.76,-4.804 15.666,22.167 -11.427,27.781 -22.927,16.031 -27.332,6.833 -11.845,5.198 -24.501,32.5 -25.668,44.666 7.667,-5.166 14.667,-15.666 31,-14 -0.167,30.5 -28.666,31.334 -28.666,33.667 0,6.865 24.25,35.75 24.25,35.75 0.072,52.698 2.406,15.698 21.75,18.583 6.5,8.042 31.739,27.282 31.739,27.282 0,0 27.75,-19.125 34.25,-27.167 17.5,0.667 21.834,27.5 21.75,-18.583 0,0 24.25,-29.75 24.25,-33.75 0,-2.333 -27.499,-7.5 -27.666,-38 16.333,-1.667 26.333,12.167 34,17.333 -1.167,-12.166 -20,-47.666 -25.834,-52.333 -7.999,17.333 -18.5,29.833 -32.833,-9.667 -16.916,-46.617 5.165,-50.167 12.333,-49.833 -24.5,-24.75 -19.167,-62.667 -27.833,-71.167 -3.167,14.75 -3.5,135 8.833,146.667 12.689,12.003 41.709,71.083 -21.292,93.417"
               style="fill:#000000;fill-opacity:1;fill-rule:nonzero;stroke:none"
               id="path82" />
            <path
               d="m 286.277,613.5 c 0,0 -1.777,11.333 -9.777,24.667 -6.258,10.43 -10.598,11.821 -8.727,14.583 7.286,10.75 8.611,8.651 17.359,20.667 l 2.29,1.083 c 0,0 15.263,-14.083 18.01,-21.583 1.169,-3.189 -4.274,-10.167 -8.242,-17.334 -4.418,-7.979 -5.9,-15.729 -9.325,-20.505 z"
               style="fill:#000000;fill-opacity:1;fill-rule:nonzero;stroke:none"
               id="path84" />
          </g>
        </g>
        <text
           xml:space="preserve"
           style="font-style:normal;font-weight:normal;font-size:5.74823px;line-height:1.25;font-family:sans-serif;letter-spacing:0px;word-spacing:0px;fill:#000000;fill-opacity:1;stroke:none;stroke-width:0.143706"
           x="112.7598"
           y="93.51767"
           id="text16-7"><tspan
             sodipodi:role="line"
             id="tspan14-4"
             x="114.78066"
             y="93.51767"
             style="text-align:end;text-anchor:end;stroke-width:0.143706"
             dx="0 0 0"><tspan
   style="font-style:normal;font-variant:normal;font-weight:normal;font-stretch:normal;font-family:'Sitka Small';-inkscape-font-specification:'Sitka Small';letter-spacing:1.05833px"
   id="tspan1540">EU</tspan> </tspan></text>
      </g>
      <path
         style="fill:#000000;stroke-width:0.0415384"
         d="m 97.566234,67.042629 c 0.003,-0.39482 0.27021,-1.10193 0.46387,-1.22489 0.0528,-0.0335 0.21765,-0.10449 0.36612,-0.15796 0.3222,-0.11568 0.35347,-0.13512 1.30851,-0.81081 0.987766,-0.69896 1.503096,-0.99934 2.180756,-1.27112 0.66077,-0.26503 0.95641,-0.47104 1.27697,-0.88987 0.23291,-0.30434 0.8629,-1.521627 0.90874,-1.755877 0.0146,-0.0746 0.0442,-0.14679 0.0661,-0.1604 0.0551,-0.0341 0.25807,0.1672 0.46628,0.46234 0.29146,0.413197 0.3335,0.604887 0.2779,1.266897 -0.11714,1.39656 -0.89381,2.17757 -2.62271,2.63786 -0.30377,0.0809 -0.63253,0.18251 -0.73056,0.22602 -0.24684,0.10912 -0.50454,0.38021 -0.82814,0.87094 -0.29859,0.45283 -0.42244,0.57719 -0.729886,0.73299 -0.27296,0.13829 -0.47802,0.1293 -0.97204,-0.0435 -0.22823,-0.0797 -0.49204,-0.14509 -0.58626,-0.14533 -0.2276,-6.3e-4 -0.48502,0.0941 -0.68398,0.25178 l -0.16241,0.12856 7.8e-4,-0.11787 z m -2.67995,-0.0477 c -0.18278,-0.0637 -0.57603,-0.25 -0.8739,-0.41418 -0.70389,-0.38789 -0.92818,-0.47499 -1.56265,-0.60686 -0.69107,-0.14363 -1.11846,-0.28628 -1.38241,-0.46149 -0.50728,-0.33671 -0.70767,-0.86065 -0.83097,-2.17267 -0.0752,-0.80027 -0.13969,-1.07737 -0.35468,-1.52413 -0.19326,-0.40158 -0.49928,-0.750107 -0.92736,-1.056247 -0.17343,-0.12394 -0.30565,-0.241076 -0.29385,-0.260206 0.0323,-0.0523 0.33577,-0.200013 0.59149,-0.287893 0.27685,-0.0953 0.73939,-0.10232 1.03073,-0.017 0.274,0.0815 0.56793,0.343273 0.71724,0.639059 0.0648,0.12832 0.21277,0.482307 0.3288,0.786507 0.11602,0.3042 0.28084,0.6687 0.36622,0.81001 0.20385,0.33737 1.08425,1.2162 1.61238,1.60949 1.32368,0.98577 2.44944,1.41702 3.95569,1.51541 l 0.42445,0.0277 -0.13368,0.16405 c -0.16411,0.20147 -0.97189,0.90418 -1.25518,1.0919 -0.45306,0.30019 -0.86587,0.34561 -1.41231,0.1553 z m 2.03538,-1.88217 c -0.76486,-0.0727 -1.37279,-0.23962 -1.9523,-0.53638 -1.35789,-0.69542 -2.74226,-1.87227 -2.93986,-2.49916 -0.12431,-0.39434 -0.15705,-0.66301 -0.15593,-1.279307 0.003,-1.237929 0.23557,-1.819182 1.26242,-3.145071 0.16304,-0.210467 0.31181,-0.383451 0.33059,-0.384252 0.0187,-8e-4 0.0195,0.105963 0.002,0.237437 -0.0446,0.327046 -0.0326,1.067111 0.0252,1.568097 0.0264,0.22844 0.0733,0.80593 0.10412,1.28328 0.0671,1.037876 0.0705,1.045796 0.49562,1.157246 0.15286,0.0401 0.35646,0.11277 0.45246,0.16162 0.4386,0.2231 1.34366,0.90253 1.86732,1.40201 0.21129,0.20147 0.44701,0.39864 0.52383,0.43806 0.2091,0.10717 0.5275,0.12588 0.83737,0.0494 0.5729,-0.14193 1.56423,-0.73939 2.09053,-1.25993 0.532736,-0.52689 1.046776,-1.494337 1.289136,-2.426176 0.19421,-0.74666 0.29881,-1.016001 0.46451,-1.196118 0.15785,-0.171571 0.20995,-0.151162 0.26947,0.105233 0.059,0.253675 0.0447,1.354495 -0.025,1.946604 -0.11432,0.971557 -0.29911,1.948997 -0.43487,2.301047 l -0.12824,0.33254 -0.36131,0.19223 c -0.32088,0.1706 -1.364866,0.85136 -1.815156,1.18355 -0.0913,0.0673 -0.35806,0.18834 -0.5926,0.26879 -0.38211,0.13099 -0.46854,0.14557 -0.83079,0.14072 -0.22237,-0.003 -0.57252,-0.0219 -0.77815,-0.0411 z m 5.070876,-2.38447 c 0.16264,-0.51247 0.33262,-1.32319 0.36992,-1.764207 0.0146,-0.17134 0.0657,-0.507809 0.1139,-0.747699 0.11311,-0.56393 0.12108,-1.14939 0.0195,-1.440463 -0.0413,-0.11835 -0.16363,-0.361282 -0.27193,-0.540002 -0.10835,-0.178632 -0.36609,-0.652029 -0.57287,-1.051833 -0.84374,-1.6313 -1.58266,-2.698126 -2.503596,-3.614589 l -0.56427,-0.561513 0.37385,7.29e-4 c 0.3922,7.73e-4 1.00581,-0.07434 1.287686,-0.157725 0.0913,-0.02694 0.33438,-0.04864 0.54,-0.04784 0.57734,0.0018 0.91627,0.187133 1.24197,0.678822 0.33744,0.509412 0.50503,1.015401 0.77598,2.34282 0.22787,1.116356 0.28701,1.269804 0.7257,1.882742 0.33381,0.466373 0.32697,0.425183 0.22898,1.381602 -0.0471,0.46009 -0.0857,0.8994 -0.0857,0.97622 0,0.0768 -0.0557,0.26225 -0.12345,0.41205 -0.0679,0.149713 -0.21003,0.558969 -0.31576,0.909216 -0.10581,0.35025 -0.24085,0.7364 -0.3002,0.85813 -0.13158,0.26959 -0.48107,0.60244 -0.82527,0.78579 l -0.25304,0.13488 z m -4.770766,0.17012 c -0.34723,-0.12248 -0.71602,-0.35032 -1.4887,-0.91952 -0.32866,-0.24206 -0.72315,-0.51388 -0.87665,-0.60395 -0.29868,-0.175217 -0.45184,-0.343837 -0.52421,-0.576997 -0.0582,-0.187366 -0.1807,-0.961369 -0.15608,-0.985989 0.0105,-0.01 0.15566,0.0697 0.32294,0.17814 0.44449,0.28772 0.97716,0.562393 1.61259,0.831589 1.39809,0.592307 2.38746,0.474717 2.78406,-0.330896 0.10528,-0.213863 0.13737,-0.347123 0.17219,-0.715043 0.0754,-0.797787 -0.0379,-1.296706 -0.34437,-1.515309 -0.21595,-0.154079 -0.67863,-0.163558 -1.12826,-0.02428 -0.38953,0.121515 -0.58198,0.247894 -0.74313,0.487812 -0.17374,0.258699 -0.22132,0.541297 -0.16117,0.956997 0.0611,0.42216 0.16485,0.671 0.3658,0.877263 0.13077,0.134396 0.14015,0.155786 0.0674,0.155786 -0.13282,0 -0.66944,-0.194186 -0.80683,-0.292129 -0.17267,-0.12298 -0.26496,-0.32451 -0.37022,-0.80865 -0.12902,-0.59346 -0.12426,-0.92995 0.018,-1.265986 0.21921,-0.517851 0.27581,-0.570441 0.96248,-0.89401 l 0.61702,-0.290783 0.56076,0.0027 c 1.11253,0.0071 1.70509,0.2737 1.911526,0.861055 0.12786,0.363763 0.14538,0.76386 0.0606,1.380404 -0.0931,0.67625 -0.103556,1.226179 -0.0251,1.320909 0.0313,0.0379 0.0921,0.0687 0.13498,0.0687 0.0975,0 0.0972,0.007 -0.009,0.21533 -0.178406,0.349707 -0.755046,0.863907 -1.685096,1.502587 -0.48239,0.33127 -0.76586,0.48185 -0.90719,0.4819 -0.0456,2e-5 -0.20973,-0.0447 -0.3645,-0.0994 z m -6.22785,-2.731556 c -0.26703,-0.26665 -0.35439,-0.39052 -0.52734,-0.74768 -0.34542,-0.713361 -0.41856,-1.214343 -0.25441,-1.742563 0.10956,-0.352585 0.30574,-0.631781 0.66971,-0.953136 0.16587,-0.146307 0.42475,-0.387755 0.57531,-0.536241 l 0.27376,-0.270009 0.3483,-1.051264 c 0.40087,-1.20987 0.45492,-1.333208 0.62953,-1.436351 0.15916,-0.09405 0.29884,-0.09842 0.94772,-0.02943 0.54764,0.05833 0.75387,0.04766 1.47901,-0.07728 0.2513,-0.04322 0.64415,-0.09794 0.873,-0.121764 0.46021,-0.04766 0.71386,-0.122724 0.93617,-0.276519 0.19887,-0.137548 0.55391,-0.150433 0.75258,-0.02721 0.40116,0.248917 0.77104,0.573091 1.059,0.928131 0.17325,0.213623 0.3699,0.451131 0.43699,0.527783 0.067,0.07656 0.11284,0.148495 0.10156,0.159913 -0.0107,0.01218 -0.19467,-0.01947 -0.40756,-0.06705 -1.27317,-0.287546 -1.89102,-0.256511 -2.86923,0.14412 -1.00401,0.411204 -1.8068,0.954345 -2.61125,1.766643 -0.42834,0.432546 -1.0379,1.212395 -1.32382,1.693644 -0.37334,0.628447 -0.67934,1.510713 -0.73955,2.132353 l -0.0293,0.303303 z m 6.78709,0.22431 c -0.18988,-0.0617 -0.3875,-0.15335 -0.43913,-0.20317 -0.19727,-0.19054 -0.29439,-0.84054 -0.16322,-1.09232 0.1321,-0.253549 0.34358,-0.349765 0.95301,-0.433559 l 0.17156,-0.02428 0.0982,0.217749 c 0.0832,0.18447 0.0984,0.28454 0.0985,0.65394 8e-5,0.25832 -0.0226,0.50009 -0.0554,0.59297 -0.0544,0.1536 -0.23664,0.405693 -0.2909,0.402173 -0.015,-8.9e-4 -0.18283,-0.0525 -0.37271,-0.114233 z m 6.320686,-0.60052 c 0.0146,-0.30271 0.0551,-0.72797 0.089,-0.944998 0.13196,-0.851255 0.0617,-1.184935 -0.39894,-1.890007 -0.40448,-0.619189 -0.46833,-0.773651 -0.61707,-1.492631 -0.15925,-0.76989 -0.3102,-1.369711 -0.3969,-1.577207 -0.0364,-0.08697 -0.057,-0.167685 -0.0456,-0.178872 0.0445,-0.04446 0.72861,0.125161 1.03392,0.256351 0.36154,0.155298 0.86055,0.433658 1.04581,0.583433 l 0.12249,0.09892 -0.13269,0.257409 c -0.11545,0.223832 -0.1327,0.298999 -0.1327,0.576319 0,0.175465 0.0289,0.42047 0.0641,0.544555 0.0352,0.124192 0.27795,0.664879 0.5393,1.201777 0.26138,0.536872 0.50584,1.097612 0.54327,1.24608 0.0843,0.334631 0.0561,0.736111 -0.0656,0.933141 -0.19856,0.32118 -0.61645,0.60426 -1.23712,0.83789 -0.45768,0.1723 -0.44277,0.18859 -0.4107,-0.45211 z m -8.996076,-0.0739 c -0.49746,-0.0839 -0.90941,-0.39606 -1.0743,-0.814332 -0.0823,-0.208768 -0.0956,-0.314704 -0.0931,-0.742092 0.003,-0.41694 0.0236,-0.576559 0.12947,-0.976149 0.18353,-0.69321 0.28221,-0.93175 0.44437,-1.074109 0.25042,-0.219946 0.69451,-0.436503 1.21997,-0.595109 0.34689,-0.104744 0.64335,-0.228686 0.91383,-0.382063 0.22021,-0.124921 0.47515,-0.245458 0.56653,-0.267938 0.46386,-0.113984 1.4861,-0.08483 1.94852,0.05567 0.11219,0.03406 0.30017,0.06198 0.41784,0.06198 0.11763,0 0.24237,0.02428 0.27718,0.05202 0.155386,0.127589 0.896916,1.305846 1.266806,2.012955 0.16283,0.311271 0.18119,0.375385 0.18119,0.632483 0,0.157485 -0.0263,0.423263 -0.0583,0.590903 -0.0738,0.385683 -0.38023,1.027621 -0.62067,1.300201 l -0.18185,0.20609 0.0993,-0.66308 c 0.0848,-0.566256 0.0931,-0.707895 0.056,-0.97 -0.0949,-0.671468 -0.38693,-1.019749 -1.070716,-1.277114 -0.88525,-0.333217 -2.03585,-0.31633 -2.73709,0.0401 -0.3329,0.169152 -0.67557,0.448028 -0.87582,0.71256 -0.36196,0.478164 -0.5046,0.915032 -0.53927,1.651704 -0.0126,0.26841 -0.0344,0.48585 -0.0484,0.48318 -0.0141,-0.003 -0.11366,-0.0195 -0.22149,-0.0379 z m -5.49472,-0.1621 c -0.45058,-0.1096 -0.74441,-0.47276 -0.90987,-1.124225 -0.0377,-0.148486 -0.0871,-0.597118 -0.10975,-0.996922 -0.0675,-1.191498 -0.122,-1.632012 -0.24636,-1.991133 l -0.11357,-0.327971 0.50285,-0.216779 c 0.69796,-0.301018 1.01716,-0.410938 1.19693,-0.4122 0.1018,-7.03e-4 0.27791,-0.06661 0.51922,-0.194425 0.20084,-0.106202 0.46593,-0.24648 0.58909,-0.311537 0.3068,-0.162101 0.4267,-0.151163 0.65876,0.06029 0.12016,0.10936 0.11793,0.233551 -0.0109,0.612556 -0.28337,0.833124 -0.65636,1.346546 -1.48699,2.046835 -0.26908,0.226739 -0.36343,0.387212 -0.48412,0.822719 -0.10829,0.390716 -0.10883,0.841998 -0.002,1.453896 0.0454,0.259776 0.0828,0.505036 0.0831,0.545016 4.7e-4,0.0785 -0.002,0.079 -0.1865,0.0338 z m 3.82153,-6.584955 c -0.15991,-0.02943 -0.36086,-0.08261 -0.44654,-0.118839 -0.2003,-0.0843 -0.20509,-0.203414 -0.0177,-0.440273 0.26521,-0.33513 0.90578,-0.761771 2.35258,-1.566919 l 0.68373,-0.380489 0.2301,0.18008 c 0.46799,0.3662 1.09116,0.723667 1.45549,0.834956 0.46473,0.141923 1.25201,0.498447 1.6525,0.748334 0.36875,0.230145 0.34394,0.256511 -0.17047,0.181299 -0.90863,-0.132942 -2.36825,-0.0097 -3.18512,0.26864 -0.89444,0.304851 -1.87566,0.417447 -2.55461,0.293166 z"
         id="path1763" />
      <text
         xml:space="preserve"
         style="font-style:normal;font-weight:normal;font-size:22.5778px;line-height:1.25;font-family:sans-serif;letter-spacing:0px;word-spacing:0px;fill:#000000;fill-opacity:1;stroke:none;stroke-width:0.264583"
         x="19.853273"
         y="66.951012"
         id="text1819"><tspan
           sodipodi:role="line"
           id="tspan1817"
           x="19.853273"
           y="66.951012"
           style="font-style:normal;font-variant:normal;font-weight:normal;font-stretch:normal;font-size:22.5778px;font-family:Elephant;-inkscape-font-specification:Elephant;stroke-width:0.264583">Death</tspan></text>
    </g>
  </g>
</svg>
